<svg xmlns="http://www.w3.org/2000/svg" xmlns:xlink="http://www.w3.org/1999/xlink" width="500" zoomAndPan="magnify" viewBox="0 0 375 374.999991" height="500" preserveAspectRatio="xMidYMid meet" version="1.0"><defs><g/><clipPath id="07a5047b76"><rect x="0" width="52" y="0" height="68"/></clipPath><clipPath id="c69d4567a7"><path d="M 70.746094 167.050781 L 139.746094 167.050781 L 139.746094 209.800781 L 70.746094 209.800781 Z M 70.746094 167.050781 " clip-rule="nonzero"/></clipPath><clipPath id="8c4f360d1d"><path d="M 62 11 L 98.679688 11 L 98.679688 55 L 62 55 Z M 62 11 " clip-rule="nonzero"/></clipPath><clipPath id="e67ddf2b7f"><rect x="0" width="99" y="0" height="68"/></clipPath><clipPath id="7bd7966696"><rect x="0" width="99" y="0" height="68"/></clipPath></defs><rect x="-37.5" width="450" fill="#ffffff" y="-37.499999" height="449.999989" fill-opacity="1"/><rect x="-37.5" width="450" fill="#ffffff" y="-37.499999" height="449.999989" fill-opacity="1"/><g transform="matrix(1, 0, 0, 1, 44, 155)"><g clip-path="url(#07a5047b76)"><g fill="#7c3aed" fill-opacity="1"><g transform="translate(1.087557, 54.49202)"><g><path d="M 8.3125 -42.765625 C 7.25 -42.765625 6.351562 -42.398438 5.625 -41.671875 C 4.882812 -40.929688 4.515625 -40.035156 4.515625 -38.984375 L 4.515625 -3.734375 C 4.515625 -2.671875 4.882812 -1.769531 5.625 -1.03125 C 6.3125 -0.300781 7.1875 0.0625 8.25 0.0625 L 26.640625 0.0625 C 27.691406 0.0625 28.585938 -0.300781 29.328125 -1.03125 C 30.015625 -1.726562 30.359375 -2.609375 30.359375 -3.671875 C 30.359375 -4.722656 29.992188 -5.617188 29.265625 -6.359375 C 28.535156 -7.046875 27.640625 -7.390625 26.578125 -7.390625 L 14.234375 -7.390625 C 13.578125 -7.390625 13.023438 -7.613281 12.578125 -8.0625 C 12.128906 -8.507812 11.90625 -9.0625 11.90625 -9.71875 L 11.90625 -38.921875 C 11.90625 -39.972656 11.582031 -40.890625 10.9375 -41.671875 C 10.238281 -42.398438 9.363281 -42.765625 8.3125 -42.765625 Z M 8.3125 -42.765625 "/></g></g></g></g></g><g clip-path="url(#c69d4567a7)"><path fill="#7ed957" d="M 92.046875 209.636719 C 103.808594 209.636719 113.339844 200.105469 113.339844 188.34375 C 113.339844 185.71875 115.46875 183.589844 118.09375 183.589844 C 120.71875 183.589844 122.847656 185.71875 122.847656 188.34375 C 122.847656 190.96875 120.71875 193.097656 118.09375 193.097656 C 117.066406 193.097656 116.113281 192.769531 115.335938 192.214844 C 114.941406 194.589844 114.195312 196.847656 113.148438 198.929688 C 114.652344 199.632812 116.328125 200.027344 118.09375 200.027344 C 124.542969 200.027344 129.777344 194.792969 129.777344 188.34375 C 129.777344 181.894531 124.542969 176.660156 118.09375 176.660156 C 111.644531 176.660156 106.414062 181.894531 106.414062 188.34375 C 106.414062 196.277344 99.984375 202.707031 92.046875 202.707031 C 84.113281 202.707031 77.683594 196.277344 77.683594 188.34375 C 77.683594 180.410156 84.113281 173.980469 92.046875 173.980469 C 94.304688 173.980469 96.441406 174.5 98.339844 175.425781 C 99.648438 173.429688 101.25 171.644531 103.085938 170.132812 C 99.867188 168.175781 96.089844 167.050781 92.046875 167.050781 C 80.289062 167.050781 70.753906 176.585938 70.753906 188.34375 C 70.753906 200.105469 80.289062 209.636719 92.046875 209.636719 M 118.09375 209.636719 C 129.855469 209.636719 139.386719 200.105469 139.386719 188.34375 C 139.386719 176.585938 129.855469 167.050781 118.09375 167.050781 C 106.335938 167.050781 96.800781 176.585938 96.800781 188.34375 C 96.800781 190.96875 94.671875 193.097656 92.046875 193.097656 C 89.421875 193.097656 87.296875 190.96875 87.296875 188.34375 C 87.296875 185.71875 89.421875 183.589844 92.046875 183.589844 C 93.078125 183.589844 94.03125 183.917969 94.808594 184.472656 C 95.199219 182.097656 95.949219 179.839844 96.996094 177.757812 C 95.492188 177.054688 93.816406 176.664062 92.046875 176.664062 C 85.597656 176.664062 80.367188 181.894531 80.367188 188.34375 C 80.367188 194.792969 85.597656 200.027344 92.046875 200.027344 C 98.496094 200.027344 103.730469 194.792969 103.730469 188.34375 C 103.730469 180.410156 110.160156 173.980469 118.09375 173.980469 C 126.03125 173.980469 132.457031 180.410156 132.457031 188.34375 C 132.457031 196.28125 126.03125 202.707031 118.09375 202.707031 C 115.839844 202.707031 113.703125 202.1875 111.804688 201.261719 C 110.496094 203.257812 108.894531 205.042969 107.058594 206.558594 C 110.277344 208.511719 114.054688 209.636719 118.09375 209.636719 Z M 118.09375 209.636719 " fill-opacity="1" fill-rule="evenodd"/></g><g transform="matrix(1, 0, 0, 1, 137, 155)"><g clip-path="url(#e67ddf2b7f)"><g fill="#7c3aed" fill-opacity="1"><g transform="translate(0.116768, 54.624236)"><g><path d="M 12.03125 -32.9375 C 12.03125 -33.59375 12.253906 -34.144531 12.703125 -34.59375 C 13.160156 -35.039062 13.710938 -35.265625 14.359375 -35.265625 L 18.515625 -35.265625 C 18.753906 -35.265625 19.179688 -35.222656 19.796875 -35.140625 C 20.367188 -35.054688 20.976562 -34.851562 21.625 -34.53125 C 22.238281 -34.195312 22.789062 -33.6875 23.28125 -33 C 23.769531 -32.300781 24.015625 -31.34375 24.015625 -30.125 C 24.015625 -28.90625 23.769531 -27.945312 23.28125 -27.25 C 22.789062 -26.5625 22.238281 -26.054688 21.625 -25.734375 C 20.976562 -25.398438 20.367188 -25.191406 19.796875 -25.109375 C 19.179688 -25.035156 18.753906 -25 18.515625 -25 L 14.359375 -25 C 13.710938 -25 13.160156 -25.222656 12.703125 -25.671875 C 12.253906 -26.117188 12.03125 -26.664062 12.03125 -27.3125 Z M 18.578125 -42.78125 L 8.375 -42.78125 C 7.3125 -42.78125 6.414062 -42.410156 5.6875 -41.671875 C 4.945312 -40.941406 4.578125 -40.046875 4.578125 -38.984375 L 4.578125 -3.734375 C 4.578125 -2.671875 4.945312 -1.769531 5.6875 -1.03125 C 6.375 -0.300781 7.25 0.0625 8.3125 0.0625 C 9.375 0.0625 10.269531 -0.300781 11 -1.03125 C 11.6875 -1.726562 12.03125 -2.609375 12.03125 -3.671875 L 12.03125 -15.03125 C 12.03125 -15.6875 12.253906 -16.238281 12.703125 -16.6875 C 13.160156 -17.132812 13.710938 -17.359375 14.359375 -17.359375 L 18.515625 -17.359375 C 20.347656 -17.359375 22.0625 -17.679688 23.65625 -18.328125 C 25.238281 -18.941406 26.625 -19.816406 27.8125 -20.953125 C 28.945312 -22.054688 29.859375 -23.382812 30.546875 -24.9375 C 31.203125 -26.476562 31.53125 -28.1875 31.53125 -30.0625 C 31.53125 -31.9375 31.203125 -33.671875 30.546875 -35.265625 C 29.898438 -36.804688 29.003906 -38.148438 27.859375 -39.296875 C 26.679688 -40.390625 25.296875 -41.242188 23.703125 -41.859375 C 22.117188 -42.472656 20.410156 -42.78125 18.578125 -42.78125 Z M 18.578125 -42.78125 "/></g></g></g><g fill="#7c3aed" fill-opacity="1"><g transform="translate(29.934985, 54.624236)"><g><path d="M 26.03125 0 C 27.09375 0 27.988281 -0.363281 28.71875 -1.09375 C 29.414062 -1.789062 29.765625 -2.671875 29.765625 -3.734375 C 29.765625 -4.785156 29.394531 -5.679688 28.65625 -6.421875 C 27.925781 -7.109375 27.03125 -7.453125 25.96875 -7.453125 L 14.296875 -7.453125 C 13.648438 -7.453125 13.101562 -7.675781 12.65625 -8.125 C 12.207031 -8.570312 11.984375 -9.125 11.984375 -9.78125 L 11.984375 -16.4375 C 11.984375 -17.09375 12.207031 -17.644531 12.65625 -18.09375 C 13.101562 -18.539062 13.648438 -18.765625 14.296875 -18.765625 L 22.671875 -18.765625 C 23.734375 -18.765625 24.628906 -19.128906 25.359375 -19.859375 C 26.054688 -20.554688 26.40625 -21.429688 26.40625 -22.484375 C 26.40625 -23.546875 26.035156 -24.441406 25.296875 -25.171875 C 24.566406 -25.867188 23.671875 -26.21875 22.609375 -26.21875 L 14.234375 -26.21875 C 13.585938 -26.21875 13.039062 -26.441406 12.59375 -26.890625 C 12.144531 -27.335938 11.921875 -27.882812 11.921875 -28.53125 L 11.921875 -32.9375 C 11.921875 -33.59375 12.144531 -34.144531 12.59375 -34.59375 C 13.039062 -35.039062 13.585938 -35.265625 14.234375 -35.265625 L 25.90625 -35.265625 C 26.96875 -35.265625 27.863281 -35.628906 28.59375 -36.359375 C 29.289062 -37.054688 29.640625 -37.929688 29.640625 -38.984375 C 29.640625 -40.046875 29.269531 -40.941406 28.53125 -41.671875 C 27.800781 -42.367188 26.90625 -42.71875 25.84375 -42.71875 L 8.125 -42.71875 C 7.0625 -42.71875 6.164062 -42.347656 5.4375 -41.609375 C 4.707031 -40.878906 4.34375 -39.984375 4.34375 -38.921875 L 4.34375 -3.671875 C 4.34375 -2.609375 4.75 -1.726562 5.5625 -1.03125 C 6.332031 -0.34375 7.25 0 8.3125 0 Z M 26.03125 0 "/></g></g></g><g clip-path="url(#8c4f360d1d)"><g fill="#7c3aed" fill-opacity="1"><g transform="translate(57.981203, 54.624236)"><g><path d="M 14.359375 -7.453125 C 13.710938 -7.453125 13.160156 -7.675781 12.703125 -8.125 C 12.253906 -8.570312 12.03125 -9.125 12.03125 -9.78125 L 12.03125 -32.9375 C 12.03125 -33.59375 12.253906 -34.144531 12.703125 -34.59375 C 13.160156 -35.039062 13.710938 -35.265625 14.359375 -35.265625 L 18.765625 -35.265625 C 20.347656 -35.265625 21.976562 -35.019531 23.65625 -34.53125 C 25.28125 -34.039062 26.765625 -33.265625 28.109375 -32.203125 C 29.453125 -31.097656 30.550781 -29.671875 31.40625 -27.921875 C 32.21875 -26.128906 32.625 -23.953125 32.625 -21.390625 C 32.625 -18.816406 32.21875 -16.65625 31.40625 -14.90625 C 30.550781 -13.113281 29.453125 -11.671875 28.109375 -10.578125 C 26.765625 -9.472656 25.28125 -8.675781 23.65625 -8.1875 C 21.976562 -7.695312 20.347656 -7.453125 18.765625 -7.453125 Z M 18.765625 -42.78125 L 8.375 -42.78125 C 7.3125 -42.78125 6.414062 -42.410156 5.6875 -41.671875 C 4.90625 -40.898438 4.515625 -39.984375 4.515625 -38.921875 L 4.515625 -3.78125 C 4.515625 -2.726562 4.90625 -1.832031 5.6875 -1.09375 C 6.414062 -0.320312 7.3125 0.0625 8.375 0.0625 L 18.765625 0.0625 C 21.898438 0.0625 24.769531 -0.46875 27.375 -1.53125 C 29.976562 -2.550781 32.238281 -4.015625 34.15625 -5.921875 C 36.03125 -7.796875 37.5 -10.054688 38.5625 -12.703125 C 39.625 -15.316406 40.15625 -18.191406 40.15625 -21.328125 C 40.15625 -24.460938 39.644531 -27.351562 38.625 -30 C 37.5625 -32.613281 36.09375 -34.875 34.21875 -36.78125 C 32.300781 -38.65625 30.039062 -40.125 27.4375 -41.1875 C 24.789062 -42.25 21.898438 -42.78125 18.765625 -42.78125 Z M 18.765625 -42.78125 "/></g></g></g></g></g></g><g transform="matrix(1, 0, 0, 1, 242, 154)"><g clip-path="url(#7bd7966696)"><g fill="#7c3aed" fill-opacity="1"><g transform="translate(1.014769, 55.292785)"><g><path d="M 8.3125 -42.78125 C 7.25 -42.78125 6.351562 -42.410156 5.625 -41.671875 C 4.882812 -40.941406 4.515625 -40.046875 4.515625 -38.984375 L 4.515625 -3.734375 C 4.515625 -2.671875 4.882812 -1.769531 5.625 -1.03125 C 6.3125 -0.300781 7.1875 0.0625 8.25 0.0625 L 26.640625 0.0625 C 27.703125 0.0625 28.597656 -0.300781 29.328125 -1.03125 C 30.023438 -1.726562 30.375 -2.609375 30.375 -3.671875 C 30.375 -4.722656 30.003906 -5.617188 29.265625 -6.359375 C 28.535156 -7.046875 27.640625 -7.390625 26.578125 -7.390625 L 14.234375 -7.390625 C 13.585938 -7.390625 13.039062 -7.613281 12.59375 -8.0625 C 12.144531 -8.507812 11.921875 -9.0625 11.921875 -9.71875 L 11.921875 -38.921875 C 11.921875 -39.984375 11.59375 -40.898438 10.9375 -41.671875 C 10.25 -42.410156 9.375 -42.78125 8.3125 -42.78125 Z M 8.3125 -42.78125 "/></g></g></g><g fill="#7c3aed" fill-opacity="1"><g transform="translate(29.733124, 55.292785)"><g><path d="M 8.3125 0 C 9.375 0 10.269531 -0.363281 11 -1.09375 C 11.6875 -1.789062 12.03125 -2.671875 12.03125 -3.734375 L 12.03125 -38.984375 C 12.03125 -40.046875 11.664062 -40.941406 10.9375 -41.671875 C 10.207031 -42.367188 9.3125 -42.71875 8.25 -42.71875 C 7.1875 -42.71875 6.289062 -42.347656 5.5625 -41.609375 C 4.832031 -40.878906 4.46875 -39.984375 4.46875 -38.921875 L 4.46875 -3.671875 C 4.46875 -2.609375 4.851562 -1.726562 5.625 -1.03125 C 6.351562 -0.34375 7.25 0 8.3125 0 Z M 8.3125 0 "/></g></g></g><g fill="#7c3aed" fill-opacity="1"><g transform="translate(40.059405, 55.292785)"><g><path d="M 8.3125 0 C 9.375 0 10.269531 -0.363281 11 -1.09375 C 11.6875 -1.789062 12.03125 -2.671875 12.03125 -3.734375 L 12.03125 -16.4375 C 12.03125 -17.09375 12.253906 -17.644531 12.703125 -18.09375 C 13.160156 -18.539062 13.710938 -18.765625 14.359375 -18.765625 L 22.734375 -18.765625 C 23.796875 -18.765625 24.691406 -19.128906 25.421875 -19.859375 C 26.109375 -20.554688 26.453125 -21.429688 26.453125 -22.484375 C 26.453125 -23.546875 26.085938 -24.441406 25.359375 -25.171875 C 24.628906 -25.867188 23.734375 -26.21875 22.671875 -26.21875 L 14.296875 -26.21875 C 13.648438 -26.21875 13.101562 -26.441406 12.65625 -26.890625 C 12.207031 -27.335938 11.984375 -27.882812 11.984375 -28.53125 L 11.984375 -32.9375 C 11.984375 -33.59375 12.207031 -34.144531 12.65625 -34.59375 C 13.101562 -35.039062 13.648438 -35.265625 14.296875 -35.265625 L 25.96875 -35.265625 C 27.03125 -35.265625 27.925781 -35.628906 28.65625 -36.359375 C 29.351562 -37.054688 29.703125 -37.929688 29.703125 -38.984375 C 29.703125 -40.046875 29.332031 -40.941406 28.59375 -41.671875 C 27.863281 -42.367188 26.96875 -42.71875 25.90625 -42.71875 L 8.1875 -42.71875 C 7.125 -42.71875 6.226562 -42.347656 5.5 -41.609375 C 4.769531 -40.878906 4.40625 -39.984375 4.40625 -38.921875 L 4.40625 -3.671875 C 4.40625 -2.609375 4.789062 -1.726562 5.5625 -1.03125 C 6.332031 -0.34375 7.25 0 8.3125 0 Z M 8.3125 0 "/></g></g></g><g fill="#7c3aed" fill-opacity="1"><g transform="translate(68.105623, 55.292785)"><g><path d="M 26.03125 0 C 27.09375 0 27.988281 -0.363281 28.71875 -1.09375 C 29.414062 -1.789062 29.765625 -2.671875 29.765625 -3.734375 C 29.765625 -4.785156 29.394531 -5.679688 28.65625 -6.421875 C 27.925781 -7.109375 27.03125 -7.453125 25.96875 -7.453125 L 14.296875 -7.453125 C 13.648438 -7.453125 13.101562 -7.675781 12.65625 -8.125 C 12.207031 -8.570312 11.984375 -9.125 11.984375 -9.78125 L 11.984375 -16.4375 C 11.984375 -17.09375 12.207031 -17.644531 12.65625 -18.09375 C 13.101562 -18.539062 13.648438 -18.765625 14.296875 -18.765625 L 22.671875 -18.765625 C 23.734375 -18.765625 24.628906 -19.128906 25.359375 -19.859375 C 26.054688 -20.554688 26.40625 -21.429688 26.40625 -22.484375 C 26.40625 -23.546875 26.035156 -24.441406 25.296875 -25.171875 C 24.566406 -25.867188 23.671875 -26.21875 22.609375 -26.21875 L 14.234375 -26.21875 C 13.585938 -26.21875 13.039062 -26.441406 12.59375 -26.890625 C 12.144531 -27.335938 11.921875 -27.882812 11.921875 -28.53125 L 11.921875 -32.9375 C 11.921875 -33.59375 12.144531 -34.144531 12.59375 -34.59375 C 13.039062 -35.039062 13.585938 -35.265625 14.234375 -35.265625 L 25.90625 -35.265625 C 26.96875 -35.265625 27.863281 -35.628906 28.59375 -36.359375 C 29.289062 -37.054688 29.640625 -37.929688 29.640625 -38.984375 C 29.640625 -40.046875 29.269531 -40.941406 28.53125 -41.671875 C 27.800781 -42.367188 26.90625 -42.71875 25.84375 -42.71875 L 8.125 -42.71875 C 7.0625 -42.71875 6.164062 -42.347656 5.4375 -41.609375 C 4.707031 -40.878906 4.34375 -39.984375 4.34375 -38.921875 L 4.34375 -3.671875 C 4.34375 -2.609375 4.75 -1.726562 5.5625 -1.03125 C 6.332031 -0.34375 7.25 0 8.3125 0 Z M 26.03125 0 "/></g></g></g></g></g></svg>